<?xml version="1.0" encoding="utf-8"?>
<!-- Generator: Adobe Illustrator 25.1.0, SVG Export Plug-In . SVG Version: 6.00 Build 0)  -->
<svg version="1.1" id="Layer_1" xmlns="http://www.w3.org/2000/svg" xmlns:xlink="http://www.w3.org/1999/xlink" x="0px" y="0px"
	 viewBox="0 0 595.3 595.3" style="enable-background:new 0 0 595.3 595.3;" xml:space="preserve">
<style type="text/css">
	.st0{fill:#007167;}
	.st1{fill:#00958A;}
	.st2{fill:#6ABF4B;}
	.st3{fill:#9D9D9C;}
</style>
<g>
	<g>
		<path class="st0" d="M325,287.7l-0.1-2.3c-1.8-36.4-9.7-68.2-24.1-97.4l-3.2-6.5l-3.2,6.5c-14.4,29.1-22.3,61-24.1,97.4l-0.1,2.3
			c8.9,1.4,18,2.2,27.4,2.2C307,289.9,316.2,289.1,325,287.7"/>
		<path class="st1" d="M204.7,154.9c13.4,17.4,33,44.6,47.5,79.5l4.3,10.4l2.5-11c5.6-24.7,14.4-47.1,26.8-68.2l1.1-1.9l-1.3-1.9
			c-7.5-11.1-15.9-21.6-26.4-33.1c-7.5-7.9-15.7-15.8-24.2-23.3l-2.5-2.2l-2.4,2.4c-12.4,12.3-22.3,25.2-30.4,39.4l-1.2,2.1l1.6,1.9
			C201.6,151,203.1,153,204.7,154.9"/>
		<path class="st0" d="M248.8,282.9l-0.3-1.2c-12.3-51.1-37.2-88-54.8-111.3l-3.9-5.2l-2.3,6.1c-7,18.4-11.7,39.3-14.1,62.3
			C191.5,256.3,217.8,273.8,248.8,282.9"/>
		<path class="st2" d="M272.4,116.4c8.5,9.3,15.9,18.1,22.3,26.9l2.9,3.9l2.9-3.9c6.5-8.8,13.7-17.5,22.3-26.8
			c7.2-7.5,15-15.1,23.1-22.3l3.2-2.9l-3.4-2.6c-19.6-15.1-37.6-24-46.5-28l-1.5-0.7l-1.5,0.7c-9,4-26.9,13-46.5,28l-3.4,2.6
			l3.2,2.9C257.5,101.4,265.2,108.9,272.4,116.4"/>
		<path class="st0" d="M422,233.6c-2.5-23-7.2-44-14.2-62.3l-2.3-6.1l-3.9,5.2c-17.6,23.3-42.4,60.1-54.8,111.3l-0.3,1.2
			C377.4,273.8,403.8,256.3,422,233.6"/>
		<path class="st1" d="M336,128.9c-10.4,11.3-19,22.1-26.4,33l-1.3,1.9l1.1,1.9c12.4,21.2,21.1,43.5,26.8,68.2l2.5,11l4.3-10.4
			c14.5-34.9,34-62,47.4-79.4c1.6-2,3.2-3.9,4.8-5.9l1.6-1.9l-1.2-2.1c-8.1-14.2-18-27.1-30.4-39.4l-2.4-2.4l-2.5,2.2
			C351.7,113.1,343.6,120.9,336,128.9"/>
	</g>
	<g>
		<polygon class="st3" points="66.5,528.2 66.5,505.1 57.4,528.2 54.3,528.2 45.3,505.1 45.3,528.2 42.3,528.2 42.3,502.6 
			47.6,502.6 56,524.2 64.3,502.6 69.6,502.6 69.6,528.2 		"/>
		<path class="st3" d="M87.3,528.2c-0.1-0.4-0.1-0.8-0.2-1.3c-0.1-0.5-0.1-0.9-0.1-1.3c-0.8,1.1-1.6,1.8-2.6,2.3
			c-1,0.4-2.1,0.6-3.4,0.6c-0.8,0-1.6-0.1-2.4-0.3c-0.8-0.2-1.4-0.5-2-1c-0.6-0.4-1-1-1.4-1.6c-0.3-0.7-0.5-1.4-0.5-2.4
			c0-1.3,0.3-2.4,1-3.2c0.7-0.8,1.5-1.4,2.5-1.8c1-0.4,2.1-0.7,3.3-0.8c1.2-0.1,2.3-0.2,3.4-0.2c0.3,0,0.6,0,0.9,0
			c0.3,0,0.6,0,0.8,0.1v-1.1c0-1.4-0.3-2.4-0.9-3.2c-0.6-0.8-1.6-1.1-3.1-1.1c-1.1,0-2,0.2-2.6,0.7c-0.6,0.5-1,1.3-1.1,2.5h-3.1
			c0-1,0.3-1.8,0.7-2.4c0.4-0.7,0.9-1.2,1.5-1.6c0.6-0.4,1.3-0.7,2.1-0.9c0.8-0.2,1.6-0.3,2.4-0.3c2.3,0,4,0.5,5.1,1.4
			c1.1,1,1.7,2.6,1.7,5v6.6c0,1.2,0.1,2.3,0.2,3.2c0.1,1,0.3,1.6,0.4,2H87.3z M86.7,519.2c-0.4,0-0.7-0.1-0.9-0.1h-0.7
			c-0.7,0-1.5,0-2.3,0.1c-0.9,0.1-1.6,0.2-2.4,0.5c-0.7,0.3-1.4,0.7-1.9,1.2c-0.5,0.5-0.7,1.2-0.7,2.2c0,0.5,0.1,1,0.3,1.5
			c0.2,0.4,0.5,0.8,0.9,1.1c0.4,0.3,0.8,0.5,1.3,0.6c0.5,0.1,1,0.2,1.5,0.2c1.1,0,2-0.2,2.7-0.6c0.6-0.4,1.1-1,1.5-1.6
			c0.3-0.7,0.6-1.5,0.7-2.3C86.6,521,86.7,520.1,86.7,519.2"/>
		<path class="st3" d="M107.9,528.2l-0.2-2.7c-0.8,1-1.6,1.8-2.4,2.3c-0.9,0.5-2,0.7-3.3,0.7c-1.3,0-2.5-0.3-3.5-0.8
			c-1-0.5-1.8-1.2-2.4-2.1c-0.6-0.9-1.1-1.9-1.4-3c-0.3-1.1-0.5-2.3-0.5-3.5c0-1.2,0.2-2.3,0.5-3.4c0.3-1.1,0.8-2.1,1.4-2.9
			c0.6-0.9,1.4-1.5,2.4-2.1c1-0.5,2.1-0.8,3.4-0.8c1.3,0,2.5,0.3,3.4,0.7c0.9,0.5,1.7,1.3,2.4,2.4v-10.6h3.1V523c0,0.8,0,1.7,0,2.6
			c0,0.9,0,1.8,0.1,2.6H107.9z M107.7,519.3c0-0.8-0.1-1.7-0.3-2.6c-0.2-0.9-0.5-1.6-0.9-2.3c-0.4-0.7-1-1.2-1.7-1.6
			c-0.7-0.4-1.5-0.6-2.5-0.6c-1,0-1.8,0.2-2.4,0.7c-0.6,0.4-1.1,1-1.5,1.7c-0.4,0.7-0.6,1.4-0.8,2.3c-0.2,0.8-0.2,1.7-0.2,2.5
			c0,0.9,0.1,1.7,0.3,2.6c0.2,0.8,0.5,1.6,0.9,2.3c0.4,0.7,1,1.2,1.6,1.6c0.7,0.4,1.5,0.6,2.5,0.6c1,0,1.8-0.2,2.4-0.6
			c0.6-0.4,1.1-1,1.5-1.6c0.4-0.7,0.7-1.4,0.8-2.3C107.6,520.9,107.7,520.1,107.7,519.3"/>
		<path class="st3" d="M116.4,502.6h3.5v3.2h-3.5V502.6z M116.6,510.3h3.1v17.9h-3.1V510.3z"/>
		<path class="st3" d="M137.7,528.2v-9.9c0-0.8,0-1.5-0.1-2.2c-0.1-0.7-0.2-1.3-0.5-1.8c-0.3-0.5-0.7-1-1.3-1.3
			c-0.6-0.3-1.3-0.5-2.3-0.5c-1,0-1.8,0.2-2.4,0.6c-0.6,0.4-1.1,0.9-1.5,1.6c-0.4,0.6-0.6,1.4-0.8,2.2c-0.2,0.8-0.2,1.6-0.2,2.5v8.9
			h-3.1v-13.3c0-0.4,0-0.8,0-1.2c0-0.4,0-0.9,0-1.3c0-0.4,0-0.8,0-1.2c0-0.4,0-0.7,0-0.9h3.1l0.1,2.9c0.7-1,1.6-1.8,2.5-2.3
			c0.9-0.5,2-0.8,3.3-0.8c2.3,0,4,0.6,4.9,1.8c1,1.2,1.4,2.9,1.4,5.1v11.1H137.7z"/>
		<path class="st3" d="M157.9,528.2c-0.1-0.4-0.1-0.8-0.2-1.3c-0.1-0.5-0.1-0.9-0.1-1.3c-0.8,1.1-1.6,1.8-2.6,2.3
			c-1,0.4-2.1,0.6-3.4,0.6c-0.8,0-1.6-0.1-2.4-0.3c-0.8-0.2-1.4-0.5-2-1c-0.6-0.4-1-1-1.4-1.6c-0.3-0.7-0.5-1.4-0.5-2.4
			c0-1.3,0.3-2.4,1-3.2c0.7-0.8,1.5-1.4,2.5-1.8c1-0.4,2.1-0.7,3.3-0.8c1.2-0.1,2.3-0.2,3.4-0.2c0.3,0,0.6,0,0.9,0
			c0.3,0,0.6,0,0.8,0.1v-1.1c0-1.4-0.3-2.4-0.9-3.2c-0.6-0.8-1.6-1.1-3.1-1.1c-1.1,0-2,0.2-2.6,0.7c-0.6,0.5-1,1.3-1.1,2.5h-3
			c0-1,0.3-1.8,0.7-2.4c0.4-0.7,0.9-1.2,1.5-1.6c0.6-0.4,1.3-0.7,2.1-0.9c0.8-0.2,1.6-0.3,2.4-0.3c2.3,0,4,0.5,5.1,1.4
			c1.1,1,1.7,2.6,1.7,5v6.6c0,1.2,0.1,2.3,0.2,3.2c0.1,1,0.3,1.6,0.4,2H157.9z M157.3,519.2c-0.4,0-0.7-0.1-0.9-0.1h-0.7
			c-0.7,0-1.4,0-2.3,0.1c-0.8,0.1-1.6,0.2-2.4,0.5c-0.7,0.3-1.4,0.7-1.9,1.2c-0.5,0.5-0.7,1.2-0.7,2.2c0,0.5,0.1,1,0.3,1.5
			c0.2,0.4,0.5,0.8,0.9,1.1c0.4,0.3,0.8,0.5,1.3,0.6c0.5,0.1,1,0.2,1.5,0.2c1.1,0,2-0.2,2.7-0.6c0.6-0.4,1.1-1,1.5-1.6
			c0.3-0.7,0.6-1.5,0.7-2.3C157.2,521,157.3,520.1,157.3,519.2"/>
		<path class="st3" d="M178.2,528.2v-9.9c0-0.8,0-1.5-0.1-2.2c-0.1-0.7-0.2-1.3-0.5-1.9c-0.3-0.5-0.7-1-1.3-1.3
			c-0.6-0.3-1.3-0.5-2.3-0.5c-0.9,0-1.7,0.2-2.3,0.5c-0.6,0.4-1.1,0.8-1.5,1.4c-0.4,0.6-0.7,1.3-0.8,2c-0.2,0.8-0.3,1.6-0.3,2.4v9.5
			H166v-25.6h3.1v10.5c0.7-1,1.5-1.8,2.5-2.3c0.9-0.5,2-0.8,3.3-0.8c1.2,0,2.2,0.2,3,0.5c0.8,0.3,1.5,0.8,2,1.4
			c0.5,0.6,0.9,1.3,1.1,2.2c0.2,0.9,0.3,1.8,0.3,3v11.1H178.2z"/>
		<path class="st3" d="M212.6,528.2c-0.4-1-0.7-2.1-0.7-3.1c-0.1-1.1-0.2-2.1-0.3-3.2c-0.1-0.9-0.2-1.8-0.3-2.5
			c-0.1-0.7-0.3-1.3-0.6-1.7c-0.3-0.5-0.8-0.8-1.4-1c-0.6-0.2-1.5-0.3-2.5-0.3h-5.5v11.9h-3.3v-25.6h9.1c1,0,2.1,0.1,3.1,0.3
			c1,0.2,1.9,0.5,2.8,1c0.8,0.5,1.5,1.1,2,1.9c0.5,0.8,0.8,1.8,0.8,3.1c0,1.7-0.5,3-1.4,4c-0.9,1-2.2,1.7-3.7,2.1
			c0.8,0.2,1.5,0.4,2,0.7c0.5,0.3,1,0.7,1.3,1.1c0.3,0.4,0.6,1,0.7,1.5c0.2,0.6,0.3,1.2,0.3,1.9c0.1,0.8,0.2,1.7,0.2,2.6
			c0,0.9,0.2,1.8,0.4,2.8c0.1,0.5,0.2,0.9,0.3,1.3c0.1,0.4,0.3,0.8,0.5,1.1H212.6z M212.2,509.3c0-0.9-0.2-1.6-0.5-2.2
			c-0.3-0.5-0.8-1-1.4-1.3c-0.6-0.3-1.2-0.5-1.9-0.6c-0.7-0.1-1.4-0.1-2.2-0.1h-5.1v8.7h4.2c0.8,0,1.6,0,2.4-0.1
			c0.8-0.1,1.6-0.3,2.2-0.6c0.7-0.3,1.2-0.8,1.6-1.4C212,511.1,212.2,510.3,212.2,509.3"/>
		<path class="st3" d="M223,519.8v0.4c0,0.8,0.1,1.6,0.3,2.4c0.2,0.8,0.6,1.4,1,2c0.4,0.6,1,1.1,1.7,1.4c0.7,0.3,1.5,0.5,2.4,0.5
			c1.3,0,2.3-0.4,3.1-1.1c0.8-0.7,1.3-1.7,1.5-3h3c-0.4,2.1-1.2,3.7-2.7,4.7c-1.4,1-3.1,1.5-5.2,1.5c-1.4,0-2.6-0.2-3.6-0.7
			c-1-0.4-1.9-1.1-2.6-1.9c-0.7-0.8-1.2-1.8-1.5-2.9c-0.3-1.1-0.5-2.3-0.5-3.6c0-1.3,0.2-2.6,0.5-3.8c0.3-1.2,0.9-2.2,1.6-3
			c0.7-0.9,1.6-1.5,2.6-2c1.1-0.5,2.3-0.7,3.8-0.7c1.5,0,2.7,0.3,3.7,0.8c1,0.5,1.8,1.3,2.4,2.2c0.6,0.9,1,1.9,1.2,3.1
			c0.2,1.2,0.4,2.4,0.4,3.7H223z M233,517.7c0-0.7-0.1-1.4-0.3-2.1c-0.2-0.7-0.5-1.3-0.9-1.8c-0.4-0.5-0.9-0.9-1.5-1.3
			c-0.6-0.3-1.3-0.5-2.1-0.5c-0.8,0-1.5,0.2-2.2,0.5c-0.6,0.3-1.1,0.7-1.6,1.3c-0.4,0.5-0.8,1.1-1,1.8c-0.2,0.7-0.4,1.4-0.5,2.1H233
			z"/>
		<path class="st3" d="M256.3,510.3c-0.1,1-0.1,2.1-0.1,3.1c0,1,0,2.1,0,3.1v6.6c0,1.7-0.1,3.3-0.2,4.8c-0.1,1.5-0.4,2.8-1,3.9
			c-0.5,1.1-1.4,2-2.5,2.6c-1.1,0.6-2.7,0.9-4.7,0.9c-0.9,0-1.8-0.1-2.7-0.2c-0.9-0.2-1.7-0.4-2.4-0.9c-0.7-0.4-1.3-1-1.7-1.7
			c-0.4-0.7-0.7-1.6-0.7-2.7h3c0,0.6,0.1,1.2,0.4,1.6c0.3,0.4,0.6,0.8,1,1c0.4,0.3,0.9,0.4,1.4,0.6c0.5,0.1,1.1,0.2,1.6,0.2
			c0.9,0,1.7-0.1,2.4-0.4c0.6-0.3,1.2-0.6,1.6-1.1c0.4-0.5,0.7-1,0.9-1.7c0.2-0.7,0.4-1.4,0.4-2.2c0-0.5,0.1-1,0.1-1.5v-1.5
			c-1.4,2.1-3.3,3.2-5.9,3.2c-1.3,0-2.5-0.2-3.5-0.7c-1-0.5-1.8-1.1-2.4-1.9c-0.7-0.8-1.1-1.8-1.5-2.9c-0.3-1.1-0.5-2.3-0.5-3.5
			c0-1.2,0.2-2.3,0.5-3.4c0.3-1.1,0.8-2.1,1.5-2.9c0.6-0.8,1.5-1.5,2.4-2c1-0.5,2.1-0.7,3.4-0.7c2.7,0,4.7,1.1,6.1,3.4v-3H256.3z
			 M253.1,518.8c0-0.8-0.1-1.6-0.3-2.4c-0.2-0.8-0.5-1.5-0.9-2.2c-0.4-0.6-1-1.2-1.6-1.6c-0.7-0.4-1.4-0.6-2.3-0.6
			c-1,0-1.8,0.2-2.5,0.6c-0.7,0.4-1.2,1-1.6,1.6c-0.4,0.7-0.7,1.4-0.9,2.2c-0.2,0.8-0.3,1.7-0.3,2.5c0,0.8,0.1,1.7,0.3,2.5
			c0.2,0.8,0.5,1.5,0.9,2.2c0.4,0.6,1,1.2,1.6,1.6c0.7,0.4,1.5,0.6,2.5,0.6c1,0,1.8-0.2,2.5-0.6c0.7-0.4,1.2-1,1.6-1.6
			c0.4-0.7,0.7-1.4,0.9-2.3C253,520.5,253.1,519.7,253.1,518.8"/>
		<path class="st3" d="M261.8,502.6h3.5v3.2h-3.5V502.6z M262,510.3h3.1v17.9H262V510.3z"/>
		<path class="st3" d="M287.3,519.2c0,1.3-0.2,2.6-0.6,3.7c-0.4,1.1-1,2.1-1.7,3c-0.8,0.9-1.7,1.5-2.8,2c-1.1,0.5-2.3,0.7-3.7,0.7
			c-1.4,0-2.7-0.2-3.8-0.7c-1.1-0.5-2-1.1-2.8-2c-0.7-0.8-1.3-1.8-1.7-3c-0.4-1.2-0.6-2.4-0.6-3.8s0.2-2.6,0.6-3.7
			c0.4-1.1,1-2.1,1.7-2.9c0.8-0.8,1.7-1.5,2.8-1.9c1.1-0.5,2.4-0.7,3.8-0.7c1.4,0,2.7,0.2,3.8,0.7c1.1,0.4,2,1.1,2.8,1.9
			c0.7,0.8,1.3,1.8,1.7,2.9C287.1,516.5,287.3,517.8,287.3,519.2 M284,519.2c0-0.9-0.1-1.7-0.3-2.6c-0.2-0.8-0.5-1.6-1-2.3
			c-0.4-0.7-1-1.2-1.7-1.6c-0.7-0.4-1.6-0.6-2.6-0.6c-1,0-1.8,0.2-2.6,0.6c-0.7,0.4-1.3,0.9-1.7,1.6c-0.4,0.7-0.8,1.4-1,2.3
			c-0.2,0.8-0.3,1.7-0.3,2.6c0,0.9,0.1,1.7,0.3,2.6c0.2,0.9,0.5,1.6,1,2.3c0.4,0.7,1,1.3,1.7,1.7c0.7,0.4,1.6,0.7,2.6,0.7
			c1,0,1.8-0.2,2.5-0.7c0.7-0.4,1.3-1,1.7-1.7c0.4-0.7,0.8-1.5,1-2.4C283.9,520.9,284,520,284,519.2"/>
		<path class="st3" d="M303.9,528.2v-9.9c0-0.8,0-1.5-0.1-2.2c-0.1-0.7-0.2-1.3-0.5-1.8c-0.3-0.5-0.7-1-1.3-1.3
			c-0.6-0.3-1.3-0.5-2.3-0.5c-1,0-1.8,0.2-2.4,0.6c-0.6,0.4-1.1,0.9-1.5,1.6c-0.4,0.6-0.6,1.4-0.8,2.2c-0.2,0.8-0.2,1.6-0.2,2.5v8.9
			h-3.1v-13.3c0-0.4,0-0.8,0-1.2c0-0.4,0-0.9,0-1.3c0-0.4,0-0.8,0-1.2c0-0.4,0-0.7,0-0.9h3.1l0.1,2.9c0.7-1,1.6-1.8,2.5-2.3
			c0.9-0.5,2.1-0.8,3.4-0.8c2.3,0,4,0.6,4.9,1.8c1,1.2,1.4,2.9,1.4,5.1v11.1H303.9z"/>
		<path class="st3" d="M324.1,528.2c-0.1-0.4-0.1-0.8-0.2-1.3c-0.1-0.5-0.1-0.9-0.1-1.3c-0.8,1.1-1.6,1.8-2.6,2.3
			c-1,0.4-2.1,0.6-3.4,0.6c-0.8,0-1.6-0.1-2.4-0.3c-0.8-0.2-1.4-0.5-2-1c-0.6-0.4-1-1-1.4-1.6c-0.3-0.7-0.5-1.4-0.5-2.4
			c0-1.3,0.3-2.4,1-3.2c0.7-0.8,1.5-1.4,2.5-1.8c1-0.4,2.1-0.7,3.3-0.8c1.2-0.1,2.4-0.2,3.4-0.2c0.3,0,0.6,0,0.9,0
			c0.3,0,0.6,0,0.8,0.1v-1.1c0-1.4-0.3-2.4-0.9-3.2c-0.6-0.8-1.6-1.1-3.1-1.1c-1.1,0-2,0.2-2.6,0.7c-0.6,0.5-1,1.3-1.1,2.5h-3
			c0-1,0.3-1.8,0.7-2.4c0.4-0.7,0.9-1.2,1.5-1.6c0.6-0.4,1.3-0.7,2.1-0.9c0.8-0.2,1.6-0.3,2.4-0.3c2.3,0,4,0.5,5.1,1.4
			c1.1,1,1.7,2.6,1.7,5v6.6c0,1.2,0.1,2.3,0.2,3.2c0.1,1,0.3,1.6,0.4,2H324.1z M323.5,519.2c-0.4,0-0.7-0.1-0.9-0.1h-0.7
			c-0.7,0-1.4,0-2.3,0.1c-0.8,0.1-1.6,0.2-2.4,0.5c-0.7,0.3-1.4,0.7-1.9,1.2c-0.5,0.5-0.7,1.2-0.7,2.2c0,0.5,0.1,1,0.3,1.5
			c0.2,0.4,0.5,0.8,0.9,1.1c0.4,0.3,0.8,0.5,1.3,0.6c0.5,0.1,1,0.2,1.5,0.2c1.1,0,2-0.2,2.7-0.6c0.6-0.4,1.1-1,1.5-1.6
			c0.3-0.7,0.6-1.5,0.7-2.3C323.4,521,323.5,520.1,323.5,519.2"/>
		<rect x="332.2" y="502.6" class="st3" width="3.1" height="25.6"/>
		<polygon class="st3" points="376.2,528.2 376.2,505.1 367.1,528.2 364.1,528.2 355,505.1 355,528.2 352,528.2 352,502.6 
			357.3,502.6 365.8,524.2 374,502.6 379.3,502.6 379.3,528.2 		"/>
		<path class="st3" d="M397.9,528.2l-0.1-2.8c-0.8,1-1.6,1.8-2.5,2.3c-0.9,0.5-2,0.7-3.3,0.7c-1.2,0-2.2-0.2-3-0.5
			c-0.8-0.3-1.5-0.8-2-1.4c-0.5-0.6-0.9-1.3-1.1-2.2c-0.2-0.9-0.3-1.8-0.3-3v-11.1h3.1v9.9c0,0.8,0,1.5,0.1,2.2
			c0.1,0.7,0.3,1.3,0.5,1.9c0.3,0.5,0.7,1,1.3,1.3c0.6,0.3,1.3,0.5,2.3,0.5c0.9,0,1.7-0.2,2.4-0.5c0.6-0.3,1.1-0.8,1.5-1.4
			c0.4-0.6,0.7-1.3,0.8-2c0.2-0.7,0.3-1.5,0.3-2.4v-9.5h3.1v8.7v4.6c0,1.5,0,3.1,0.1,4.6H397.9z"/>
		<path class="st3" d="M418.9,528.2v-9.9c0-0.8,0-1.5-0.1-2.2c-0.1-0.7-0.2-1.3-0.5-1.8c-0.3-0.5-0.7-1-1.3-1.3
			c-0.6-0.3-1.3-0.5-2.3-0.5c-1,0-1.8,0.2-2.4,0.6c-0.6,0.4-1.1,0.9-1.5,1.6c-0.4,0.6-0.6,1.4-0.8,2.2c-0.2,0.8-0.2,1.6-0.2,2.5v8.9
			h-3.1v-13.3c0-0.4,0-0.8,0-1.2c0-0.4,0-0.9,0-1.3c0-0.4,0-0.8,0-1.2c0-0.4,0-0.7,0-0.9h3.1l0.1,2.9c0.7-1,1.6-1.8,2.5-2.3
			c0.9-0.5,2-0.8,3.3-0.8c2.3,0,4,0.6,4.9,1.8c1,1.2,1.4,2.9,1.4,5.1v11.1H418.9z"/>
		<path class="st3" d="M427.5,502.6h3.5v3.2h-3.5V502.6z M427.7,510.3h3.1v17.9h-3.1V510.3z"/>
		<path class="st3" d="M450.8,525c-0.4,0.8-1,1.5-1.6,2c-0.7,0.5-1.5,0.9-2.3,1.2c-0.9,0.3-1.8,0.4-2.9,0.4c-1.4,0-2.7-0.2-3.7-0.7
			c-1.1-0.4-2-1.1-2.7-1.9c-0.7-0.8-1.3-1.8-1.7-2.9c-0.4-1.1-0.6-2.4-0.6-3.7c0-1.4,0.2-2.6,0.6-3.8c0.4-1.2,0.9-2.2,1.7-3.1
			c0.7-0.9,1.7-1.5,2.8-2c1.1-0.5,2.4-0.7,3.8-0.7c2,0,3.7,0.5,5,1.5c1.3,1,2.1,2.6,2.3,4.7h-3c-0.1-1.3-0.5-2.3-1.2-3
			c-0.7-0.7-1.7-1.1-3-1.1c-1.1,0-1.9,0.2-2.7,0.6c-0.7,0.4-1.3,1-1.7,1.7c-0.4,0.7-0.7,1.5-0.9,2.3c-0.2,0.9-0.3,1.8-0.3,2.7
			c0,0.9,0.1,1.7,0.3,2.6c0.2,0.9,0.5,1.6,0.9,2.3c0.4,0.7,1,1.2,1.7,1.7c0.7,0.4,1.5,0.6,2.5,0.6c1.3,0,2.4-0.4,3.2-1.2
			c0.8-0.8,1.2-1.8,1.3-3.1h2.9l0.1,0C451.5,523.3,451.2,524.2,450.8,525"/>
		<path class="st3" d="M455.4,502.6h3.5v3.2h-3.5V502.6z M455.6,510.3h3.1v17.9h-3.1V510.3z"/>
		<path class="st3" d="M481.3,519c0,1.2-0.2,2.4-0.5,3.5c-0.3,1.1-0.8,2.2-1.5,3s-1.5,1.6-2.5,2.1c-1,0.5-2.2,0.8-3.5,0.8
			c-1.3,0-2.4-0.2-3.2-0.7c-0.9-0.5-1.7-1.3-2.4-2.3v9.4h-3.1v-19.5c0-0.8,0-1.7,0-2.5c0-0.9,0-1.7-0.1-2.6h3.1l0.1,3.1
			c0.7-1.2,1.5-2,2.5-2.6c1-0.5,2.2-0.8,3.6-0.8c1.3,0,2.4,0.3,3.4,0.7c1,0.5,1.7,1.2,2.4,2c0.6,0.8,1.1,1.8,1.4,2.9
			C481.1,516.7,481.3,517.8,481.3,519 M478,519.2c0-0.8-0.1-1.6-0.2-2.4c-0.2-0.8-0.4-1.6-0.8-2.3c-0.4-0.7-0.9-1.2-1.5-1.7
			c-0.6-0.4-1.4-0.7-2.4-0.7c-1,0-1.8,0.2-2.5,0.6c-0.7,0.4-1.2,1-1.6,1.6c-0.4,0.7-0.7,1.4-0.9,2.3c-0.2,0.8-0.3,1.7-0.3,2.5
			c0,0.8,0.1,1.6,0.2,2.5c0.2,0.8,0.4,1.6,0.8,2.3c0.4,0.7,0.9,1.2,1.5,1.6c0.6,0.4,1.4,0.6,2.4,0.6c1,0,1.9-0.2,2.6-0.6
			c0.7-0.4,1.2-1,1.6-1.6c0.4-0.7,0.7-1.4,0.9-2.3C477.9,520.9,478,520,478,519.2"/>
		<path class="st3" d="M497.1,528.2c-0.1-0.4-0.1-0.8-0.2-1.3c-0.1-0.5-0.1-0.9-0.1-1.3c-0.8,1.1-1.6,1.8-2.6,2.3
			c-1,0.4-2.1,0.6-3.4,0.6c-0.8,0-1.6-0.1-2.4-0.3c-0.8-0.2-1.4-0.5-2-1c-0.6-0.4-1-1-1.4-1.6c-0.3-0.7-0.5-1.4-0.5-2.4
			c0-1.3,0.3-2.4,1-3.2c0.7-0.8,1.5-1.4,2.5-1.8c1-0.4,2.1-0.7,3.3-0.8c1.2-0.1,2.3-0.2,3.4-0.2c0.3,0,0.6,0,0.9,0
			c0.3,0,0.6,0,0.8,0.1v-1.1c0-1.4-0.3-2.4-0.9-3.2c-0.6-0.8-1.6-1.1-3.1-1.1c-1.1,0-2,0.2-2.6,0.7c-0.6,0.5-1,1.3-1.1,2.5h-3
			c0-1,0.3-1.8,0.7-2.4c0.4-0.7,0.9-1.2,1.5-1.6c0.6-0.4,1.3-0.7,2.1-0.9c0.8-0.2,1.6-0.3,2.4-0.3c2.3,0,4,0.5,5.1,1.4
			c1.1,1,1.7,2.6,1.7,5v6.6c0,1.2,0.1,2.3,0.2,3.2c0.1,1,0.3,1.6,0.4,2H497.1z M496.4,519.2c-0.4,0-0.7-0.1-0.9-0.1h-0.7
			c-0.7,0-1.5,0-2.3,0.1c-0.9,0.1-1.6,0.2-2.4,0.5c-0.7,0.3-1.4,0.7-1.9,1.2c-0.5,0.5-0.7,1.2-0.7,2.2c0,0.5,0.1,1,0.3,1.5
			c0.2,0.4,0.5,0.8,0.9,1.1c0.4,0.3,0.8,0.5,1.3,0.6c0.5,0.1,1,0.2,1.5,0.2c1.1,0,2-0.2,2.7-0.6c0.6-0.4,1.1-1,1.5-1.6
			c0.3-0.7,0.6-1.5,0.7-2.3C496.4,521,496.4,520.1,496.4,519.2"/>
		<rect x="505.2" y="502.6" class="st3" width="3.1" height="25.6"/>
		<path class="st3" d="M514,502.6h3.5v3.2H514V502.6z M514.1,510.3h3.1v17.9h-3.1V510.3z"/>
		<path class="st3" d="M528.6,528.4c-1.4,0-2.5-0.3-3.3-1c-0.7-0.6-1.1-1.7-1.1-3.2v-11.8h-3.5v-2.2h3.5v-3.5l3.1-1.3v4.8h4v2.2h-4
			V523c0,0.5,0,1,0.1,1.4c0,0.4,0.2,0.7,0.3,0.9c0.2,0.2,0.4,0.4,0.7,0.5c0.3,0.1,0.7,0.2,1.3,0.2c0.3,0,0.6,0,0.8-0.1
			c0.3,0,0.5-0.1,0.9-0.1v2.4C530.4,528.3,529.5,528.4,528.6,528.4"/>
		<polygon class="st3" points="540.6,534.9 537.5,534.9 540.4,528.2 532.8,510.3 536.4,510.3 542,524.9 547.6,510.3 550.8,510.3 		
			"/>
	</g>
	<g>
		<path class="st0" d="M55.8,435.1c0.7-0.7,1.1-1.6,1.1-2.6c0-1-0.4-1.9-1.1-2.7c-0.7-0.7-1.6-1.1-2.7-1.1c-1,0-1.9,0.4-2.6,1.1
			c-0.7,0.8-1.1,1.6-1.1,2.7c0,1,0.4,1.9,1.1,2.6c0.7,0.8,1.6,1.1,2.6,1.1C54.2,436.3,55.1,435.9,55.8,435.1"/>
		<path class="st0" d="M45.6,446.3c-2.2,2.4-3.3,5.9-3.3,10.5v10.5h28.4v-6.4h-6.9h-3.6h-11v-3.5c0-2.8,0.6-4.9,1.9-6.3
			c1.3-1.4,3.3-2.1,6.1-2.1h6.5v8.9h6.9v-15.3H55.8C51.2,442.6,47.8,443.8,45.6,446.3"/>
		<path class="st0" d="M62.8,436.3c1,0,1.9-0.4,2.6-1.1c0.8-0.8,1.1-1.6,1.1-2.6c0-1-0.4-1.9-1.1-2.7c-0.7-0.7-1.6-1.1-2.6-1.1
			c-0.7,0-1.3,0.2-1.9,0.5c-0.6,0.4-1.1,0.8-1.4,1.4c-0.4,0.6-0.5,1.2-0.5,1.9c0,0.7,0.2,1.3,0.5,1.9c0.4,0.6,0.8,1.1,1.4,1.4
			C61.5,436.1,62.2,436.3,62.8,436.3"/>
		<path class="st0" d="M84.3,467.1c0,2.8-0.6,4.9-1.9,6.4c-1.3,1.5-3.2,2.3-5.7,2.3h-2.1v6.5h2.6c4.7,0,8.2-1.3,10.5-4
			c2.3-2.6,3.5-6.3,3.5-11v-24.7h-6.9V467.1z"/>
		<path class="st0" d="M162.9,436.3c1,0,1.9-0.4,2.7-1.1c0.7-0.7,1.1-1.6,1.1-2.6c0-1.1-0.4-2-1.1-2.7c-0.7-0.7-1.6-1.1-2.7-1.1
			c-1,0-1.9,0.4-2.6,1.1c-0.7,0.8-1.1,1.7-1.1,2.7c0,1,0.4,1.9,1.1,2.6C161,435.9,161.9,436.3,162.9,436.3"/>
		<path class="st0" d="M252.6,460.9h-9.8h-15.3h0H223v-4.1c0-4.6-1.1-8.1-3.3-10.5c-2.2-2.4-5.6-3.6-10.2-3.6h-14.9v18.2h-8.7h-15.3
			h-4.3v-18.2h-6.8v18.2h-9.9h-15.3c0,0,0,0,0,0c0,0,0,0,0,0h-4.5v-18.2h-14.9c-4.6,0-8,1.2-10.2,3.6c-2.2,2.4-3.3,5.9-3.3,10.5
			v10.5h21.5c0,2.1-0.2,3.8-0.6,5c-0.4,1.2-1.2,2.1-2.3,2.7c-1.1,0.6-2.7,0.9-4.7,0.9h-9.1v6.4h10.2c4.8,0,8.2-1.3,10.2-3.9
			c2-2.6,3.1-6.3,3.2-11.2h4.6h0h0h15.3h21h15.3h41.6h0h15.3h16.7v-39.8h-6.9V460.9z M122.8,460.9h-14.6v-3.5c0-2.8,0.6-4.9,1.9-6.3
			c1.3-1.4,3.3-2.1,6.1-2.1h6.5V460.9z M216,460.9h-14.6V449h6.5c2.8,0,4.8,0.7,6.1,2.1c1.3,1.4,1.9,3.5,1.9,6.3V460.9z"/>
		<rect x="268.9" y="427.4" class="st0" width="6.9" height="39.8"/>
		<path class="st0" d="M306.8,429.8c-0.7,0.7-1.1,1.6-1.1,2.7c0,1,0.4,1.9,1.1,2.6c0.7,0.8,1.6,1.1,2.6,1.1c1,0,1.9-0.4,2.7-1.1
			c0.7-0.8,1.1-1.6,1.1-2.6c0-1-0.4-1.9-1.1-2.7c-0.7-0.7-1.6-1.1-2.7-1.1C308.4,428.7,307.5,429.1,306.8,429.8"/>
		<path class="st0" d="M317.2,429.2c-0.6,0.4-1.1,0.8-1.4,1.4c-0.4,0.6-0.5,1.2-0.5,1.9c0,0.7,0.2,1.3,0.5,1.9
			c0.4,0.6,0.8,1.1,1.4,1.4c0.6,0.3,1.2,0.5,1.9,0.5c1,0,1.9-0.4,2.6-1.1c0.8-0.8,1.1-1.6,1.1-2.6c0-1-0.4-1.9-1.1-2.7
			c-0.7-0.7-1.6-1.1-2.6-1.1C318.4,428.7,317.8,428.9,317.2,429.2"/>
		<path class="st0" d="M360.2,436.3c1,0,1.9-0.4,2.7-1.1c0.7-0.7,1.1-1.6,1.1-2.6c0-1.1-0.4-2-1.1-2.7c-0.7-0.7-1.6-1.1-2.7-1.1
			c-1,0-1.9,0.4-2.6,1.1c-0.7,0.8-1.1,1.7-1.1,2.7c0,1,0.4,1.9,1.1,2.6C358.3,435.9,359.2,436.3,360.2,436.3"/>
		<path class="st0" d="M401.4,471.6c-0.7,0-1.3,0.2-1.9,0.5c-0.6,0.4-1.1,0.8-1.4,1.4c-0.4,0.6-0.5,1.2-0.5,1.9
			c0,0.6,0.2,1.2,0.5,1.8c0.4,0.6,0.8,1,1.4,1.4c0.6,0.3,1.2,0.5,1.9,0.5c0.7,0,1.3-0.2,1.9-0.5c0.6-0.3,1.1-0.8,1.4-1.4
			c0.3-0.6,0.5-1.2,0.5-1.8c0-1.1-0.4-2-1.1-2.8C403.3,471.9,402.4,471.6,401.4,471.6"/>
		<path class="st0" d="M402.4,442.6h-6.8v18.2h-12.5h-15.3h-4.3v-18.2h-6.8v18.2h-9.9h-15.3c0,0,0,0,0,0c0,0,0,0,0,0h-2.2H327h-6.9
			h-3.7h-10.9v-3.5c0-2.8,0.6-4.9,1.9-6.3c1.3-1.4,3.3-2.1,6.1-2.1h6.6v8.9h6.9v-15.3h-14.9c-4.6,0-8,1.2-10.2,3.6
			c-2.2,2.4-3.3,5.9-3.3,10.5v10.5h32.9c0,0,0,0,0,0c0,0,0,0,0,0h15.3h21h15.3h19.2V442.6z"/>
		<path class="st0" d="M391.7,471.6c-1,0-1.9,0.4-2.6,1.1c-0.7,0.8-1.1,1.7-1.1,2.8c0,0.6,0.2,1.2,0.5,1.8c0.3,0.6,0.8,1,1.4,1.4
			c0.6,0.3,1.2,0.5,1.9,0.5c1,0,1.9-0.4,2.7-1.1c0.7-0.7,1.1-1.6,1.1-2.6c0-1.1-0.4-2-1.1-2.8C393.6,471.9,392.8,471.6,391.7,471.6"
			/>
		<path class="st0" d="M527.5,460.9h-10.8h-15.3h-4.5v-4.1c0-4.6-1.1-8.1-3.3-10.5c-2.2-2.4-5.6-3.6-10.2-3.6h-14.9v18.2h-8.7h-15.3
			c0,0,0,0,0,0c0,0,0,0,0,0h-4.6v-4.5c0-9.1-4.4-13.7-13.3-13.7h-11.7v6.4H425c2.8,0,4.8,0.6,6.1,1.9c1.3,1.3,1.9,3.2,1.9,5.8v4.1
			h-23.1v6.4h34.6h0h0h15.3h41.6h15.3h17.7v-39.8h-6.9V460.9z M489.9,460.9h-14.6V449h6.5c2.8,0,4.9,0.7,6.1,2.1
			c1.3,1.4,1.9,3.5,1.9,6.3V460.9z"/>
		<rect x="543.9" y="427.4" class="st0" width="6.9" height="39.8"/>
		<path class="st0" d="M60.9,368.3c0.6,0.3,1.2,0.5,1.9,0.5c1,0,1.9-0.4,2.6-1.1c0.8-0.7,1.1-1.6,1.1-2.6c0-1-0.4-1.9-1.1-2.7
			c-0.7-0.7-1.6-1.1-2.6-1.1c-0.7,0-1.3,0.2-1.9,0.5c-0.6,0.4-1.1,0.8-1.4,1.4c-0.4,0.6-0.5,1.2-0.5,1.9c0,0.7,0.2,1.3,0.5,1.9
			C59.8,367.5,60.3,368,60.9,368.3"/>
		<path class="st0" d="M53.1,368.9c1,0,1.9-0.4,2.7-1.1c0.7-0.7,1.1-1.6,1.1-2.6c0-1-0.4-1.9-1.1-2.7c-0.7-0.7-1.6-1.1-2.7-1.1
			c-1,0-1.9,0.4-2.6,1.1c-0.8,0.7-1.1,1.6-1.1,2.7c0,1,0.4,1.9,1.1,2.6C51.2,368.5,52.1,368.9,53.1,368.9"/>
		<path class="st0" d="M123.6,368.9c1,0,1.9-0.4,2.7-1.1c0.7-0.7,1.1-1.6,1.1-2.6c0-1-0.4-1.9-1.1-2.7c-0.7-0.7-1.6-1.1-2.7-1.1
			c-1,0-1.9,0.4-2.6,1.1c-0.7,0.7-1.1,1.6-1.1,2.7c0,1,0.4,1.9,1.1,2.6C121.8,368.5,122.6,368.9,123.6,368.9"/>
		<path class="st0" d="M131.4,368.3c0.6,0.3,1.2,0.5,1.9,0.5c1,0,1.9-0.4,2.6-1.1c0.7-0.7,1.1-1.6,1.1-2.6c0-1-0.4-1.9-1.1-2.7
			c-0.7-0.7-1.6-1.1-2.6-1.1c-0.7,0-1.3,0.2-1.9,0.5c-0.6,0.4-1.1,0.8-1.4,1.4c-0.4,0.6-0.5,1.2-0.5,1.9c0,0.7,0.2,1.3,0.5,1.9
			C130.3,367.5,130.8,368,131.4,368.3"/>
		<path class="st0" d="M276.2,368.9c1,0,1.9-0.4,2.7-1.1c0.7-0.7,1.1-1.6,1.1-2.6c0-1.1-0.4-2-1.1-2.7c-0.7-0.7-1.6-1.1-2.7-1.1
			c-1,0-1.9,0.4-2.6,1.1c-0.7,0.8-1.1,1.7-1.1,2.7c0,1,0.4,1.9,1.1,2.6C274.3,368.5,275.2,368.9,276.2,368.9"/>
		<path class="st0" d="M346.9,399.9v-10.5c0-4.6-1.1-8.1-3.3-10.5c-2.2-2.4-5.6-3.6-10.2-3.6h-14.9v18.2h-8.7h-25.9h-4.3v-18.2h-6.8
			v18.2h-9.9h0h-22.4h0h-4.6v-4.5c0-9.1-4.4-13.7-13.3-13.7h-27.1V360h-6.9v33.4h-9h0h-33h-4.5v-18.2h-15c-4.6,0-8,1.2-10.2,3.6
			c-2.2,2.4-3.3,5.9-3.3,10.5v4.1h-8.9H75.2c0,0,0,0,0,0c0,0,0,0,0,0H73h-2.3h-6.9H60H49.1V390c0-2.8,0.6-4.9,1.9-6.3
			c1.3-1.4,3.3-2.1,6.1-2.1h6.6v8.9h6.9v-15.3H55.8c-4.6,0-8,1.2-10.2,3.6c-2.2,2.4-3.3,5.9-3.3,10.5v10.5h32.9h0h0h29.5h41.8h33h0
			h60.9h0h22.4h0h21h25.9H346.9z M325.4,381.6h6.5c2.8,0,4.9,0.7,6.1,2.1c1.3,1.4,1.9,3.5,1.9,6.3v3.5h-14.6V381.6z M135.1,393.5
			h-14.6V390c0-2.8,0.6-4.9,1.9-6.3c1.3-1.4,3.3-2.1,6.1-2.1h6.5V393.5z M229,393.5h-33.5v-11.8H221c2.8,0,4.8,0.6,6.1,1.9
			c1.3,1.3,1.9,3.2,1.9,5.8V393.5z"/>
		<path class="st0" d="M386.8,368.3c0.6,0.3,1.2,0.5,1.9,0.5c1,0,1.9-0.4,2.6-1.1c0.7-0.7,1.1-1.6,1.1-2.6c0-1-0.4-1.9-1.1-2.7
			c-0.7-0.7-1.6-1.1-2.6-1.1c-0.7,0-1.3,0.2-1.9,0.5c-0.6,0.4-1.1,0.8-1.4,1.4c-0.4,0.6-0.5,1.2-0.5,1.9c0,0.7,0.2,1.3,0.5,1.9
			C385.7,367.5,386.2,368,386.8,368.3"/>
		<path class="st0" d="M401.1,399.9L401.1,399.9h36.6h0h16.7v-24.6h-6.8v18.2h-9.9h0h-36.6c0,0,0,0,0,0c0,0,0,0,0,0h-1.3h-3.3h-6.9
			h-2.8h-11.8V390c0-2.8,0.6-4.9,1.9-6.3c1.3-1.4,3.3-2.1,6.1-2.1h6.5v8.9h6.9v-15.3h-14.9c-4.6,0-8,1.2-10.2,3.6
			c-2.2,2.4-3.3,5.9-3.3,10.5v10.5H401.1L401.1,399.9z"/>
		<path class="st0" d="M379,368.9c1,0,1.9-0.4,2.7-1.1c0.7-0.7,1.1-1.6,1.1-2.6c0-1-0.4-1.9-1.1-2.7c-0.7-0.7-1.6-1.1-2.7-1.1
			c-1,0-1.9,0.4-2.6,1.1c-0.8,0.7-1.1,1.6-1.1,2.7c0,1,0.4,1.9,1.1,2.6C377.2,368.5,378,368.9,379,368.9"/>
		<path class="st0" d="M451,368.9c1,0,1.9-0.4,2.7-1.1c0.7-0.7,1.1-1.6,1.1-2.6c0-1.1-0.4-2-1.1-2.7c-0.7-0.7-1.6-1.1-2.7-1.1
			c-1,0-1.9,0.4-2.6,1.1c-0.7,0.8-1.1,1.7-1.1,2.7c0,1,0.4,1.9,1.1,2.6C449.1,368.5,450,368.9,451,368.9"/>
		<path class="st0" d="M522.3,375.2h-14.9v18.2h-15.8h0h-15.3c0,0,0,0,0,0c0,0,0,0,0,0h-0.6c-1.7,0-2.9-0.4-3.7-1.2
			c-0.8-0.8-1.2-2.1-1.2-3.8V360h-6.9v27.7c0,2.9,0.4,5.2,1.1,7c0.8,1.8,2,3.1,3.8,3.9c1.8,0.8,4.2,1.3,7.2,1.3h0.3h0h0h15.3h0h44.2
			v-10.5c0-4.6-1.1-8.1-3.3-10.5C530.3,376.4,526.9,375.2,522.3,375.2 M528.9,393.5h-14.6v-11.8h6.5c2.8,0,4.8,0.7,6.1,2.1
			c1.3,1.4,1.9,3.5,1.9,6.3V393.5z"/>
		<rect x="543.9" y="360" class="st0" width="6.9" height="39.8"/>
		<path class="st0" d="M547,354v-3c0-0.8,0.2-1.3,0.5-1.7c0.3-0.4,0.8-0.5,1.5-0.5h3.2V346h-3c-1.8,0-3.2,0.4-4,1.1
			c-0.8,0.8-1.2,2-1.2,3.8v3v2.7h8.9V354H547z"/>
	</g>
</g>
</svg>
